<?xml version="1.0" standalone="no"?>
<!DOCTYPE svg PUBLIC "-//W3C//DTD SVG 20010904//EN"
 "http://www.w3.org/TR/2001/REC-SVG-20010904/DTD/svg10.dtd">
<svg version="1.0" xmlns="http://www.w3.org/2000/svg"
 width="1024.000000pt" height="1024.000000pt" viewBox="0 0 1024.000000 1024.000000"
 preserveAspectRatio="xMidYMid meet">

<g transform="translate(0.000000,1024.000000) scale(0.100000,-0.100000)"
fill="#000000" stroke="none">
<path d="M3577 8059 c-422 -37 -758 -210 -976 -500 -110 -146 -181 -311 -223
-519 l-23 -115 0 -1575 c0 -1248 3 -1593 13 -1660 36 -230 107 -426 216 -589
210 -316 549 -505 988 -551 128 -13 2933 -13 3069 0 243 24 413 71 591 162
385 197 606 549 648 1030 8 95 11 570 8 1678 l-3 1545 -22 96 c-60 262 -163
457 -332 626 -218 218 -500 338 -871 372 -135 13 -2944 13 -3083 0z m3245
-459 c196 -254 268 -350 261 -350 -4 1 -37 40 -73 88 -107 144 -261 341 -269
346 -4 3 -21 -14 -38 -37 -39 -54 -201 -266 -331 -432 -56 -71 -102 -133 -102
-137 0 -4 45 -7 100 -5 55 2 100 -1 100 -5 0 -4 -52 -8 -116 -8 l-116 0 39 48
c44 52 306 394 396 515 32 43 62 77 67 75 5 -2 42 -46 82 -98z m-862 -374 c0
-25 -66 -161 -108 -223 -49 -71 -151 -170 -214 -207 -25 -15 -73 -37 -105 -49
-55 -20 -79 -22 -533 -28 -506 -7 -518 -8 -675 -62 -298 -102 -518 -343 -597
-653 -22 -87 -23 -101 -23 -619 0 -575 2 -604 56 -763 34 -99 83 -193 145
-273 61 -80 192 -199 263 -240 33 -19 61 -37 61 -40 0 -4 -35 -31 -77 -60 -43
-29 -133 -93 -201 -141 l-123 -88 -37 19 c-59 30 -153 103 -222 173 -215 215
-337 478 -370 798 -8 80 -10 289 -7 680 4 563 4 565 29 675 15 61 37 140 51
177 192 505 671 872 1212 927 44 5 394 9 778 10 602 1 697 -1 697 -13z m1214
-86 l57 -75 -120 -3 -121 -3 -3 -357 -2 -357 -3 363 -2 362 68 1 c81 1 142 5
148 11 2 3 -4 16 -14 29 -10 13 -35 49 -57 79 -52 74 -21 43 49 -50z m-687
-1383 c-1 -238 -2 -40 -2 438 0 479 1 673 2 432 2 -241 2 -633 0 -870z m-239
36 l-3 -748 -2 743 -3 742 -51 -26 c-28 -14 -53 -23 -56 -21 -4 5 93 54 110
56 4 1 6 -335 5 -746z m-198 647 c-41 -21 -79 -39 -85 -39 -5 0 24 18 65 39
41 21 80 39 85 39 6 0 -24 -18 -65 -39z m-105 -50 c-3 -5 -11 -10 -16 -10 -6
0 -7 5 -4 10 3 6 11 10 16 10 6 0 7 -4 4 -10z m-140 -65 l-110 -52 -5 -434 -5
-434 -3 436 -2 436 108 51 c59 28 112 50 117 50 6 0 -39 -24 -100 -53z m1182
-97 c-2 -24 -4 -7 -4 37 0 44 2 63 4 43 2 -21 2 -57 0 -80z m0 -125 c-2 -16
-4 -3 -4 27 0 30 2 43 4 28 2 -16 2 -40 0 -55z m0 -140 c-3 -10 -5 -2 -5 17 0
19 2 27 5 18 2 -10 2 -26 0 -35z m0 -80 c-3 -10 -5 -2 -5 17 0 19 2 27 5 18 2
-10 2 -26 0 -35z m-1537 -446 l0 -463 -295 -197 c-162 -108 -296 -197 -297
-197 -2 0 -2 235 -1 521 l2 522 93 42 c51 24 183 86 293 138 110 53 201 96
203 96 1 1 2 -207 2 -462z m237 -114 c-3 -10 -5 -4 -5 12 0 17 2 24 5 18 2 -7
2 -21 0 -30z m5 -180 c2 -44 0 -79 -4 -76 -5 2 -7 57 -6 121 2 119 5 102 10
-45z m555 -215 c-2 -24 -4 -7 -4 37 0 44 2 63 4 43 2 -21 2 -57 0 -80z m0
-400 c335 -232 698 -484 808 -560 110 -76 211 -147 225 -158 25 -19 25 -19
-118 -19 -91 -1 -151 3 -165 11 -12 6 -110 75 -217 153 -107 77 -269 194 -360
260 -240 173 -548 397 -675 490 -60 45 -115 84 -121 88 -6 3 -68 -35 -137 -86
-178 -131 -505 -374 -762 -566 -121 -90 -289 -215 -374 -278 l-153 -113 -154
0 c-96 0 -154 4 -154 10 0 6 3 10 8 10 4 0 153 101 332 224 179 124 531 365
783 538 251 172 491 337 533 366 42 28 80 52 85 52 5 0 282 -190 616 -422z m3
251 c0 -55 -3 -98 -7 -96 -8 5 -5 197 3 197 2 0 4 -45 4 -101z m-670 -639 l0
-100 -105 0 -105 0 0 100 0 100 105 0 105 0 0 -100z m270 0 l0 -100 -105 0
-105 0 0 100 0 100 105 0 105 0 0 -100z m-270 -270 l0 -100 -105 0 -105 0 0
100 0 100 105 0 105 0 0 -100z m270 0 l0 -100 -105 0 -105 0 0 100 0 100 105
0 105 0 0 -100z"/>
<path d="M5433 5640 c0 -36 2 -50 4 -32 2 17 2 47 0 65 -2 17 -4 3 -4 -33z"/>
<path d="M5432 5550 c0 -14 2 -19 5 -12 2 6 2 18 0 25 -3 6 -5 1 -5 -13z"/>
<path d="M5433 5485 c0 -22 2 -30 4 -17 2 12 2 30 0 40 -3 9 -5 -1 -4 -23z"/>
<path d="M5433 5300 c0 -36 2 -50 4 -32 2 17 2 47 0 65 -2 17 -4 3 -4 -33z"/>
<path d="M5433 5085 c0 -22 2 -30 4 -17 2 12 2 30 0 40 -3 9 -5 -1 -4 -23z"/>
<path d="M4871 4984 c0 -11 3 -14 6 -6 3 7 2 16 -1 19 -3 4 -6 -2 -5 -13z"/>
</g>
</svg>
